<svg width="323" height="294" viewBox="0 0 323 294" fill="none" xmlns="http://www.w3.org/2000/svg">
<path d="M128.789 82.9839L111.436 61.3016L162.51 0L213.387 61.3016L195.442 82.9839L162.51 43.1674L128.789 82.9839Z" fill="#20425E"/>
<path d="M262.348 1.97217L264.274 44.7677L183.567 138.573L165.826 118.92L262.348 1.97217Z" fill="#20425E"/>
<path d="M62.4194 2.17114L60.1145 45.2912L140.826 139.092L158.907 119.149L62.4194 2.17114Z" fill="#20425E"/>
<path d="M22.5242 157.669H10.0767L24.6976 182.96V202.125H36.75V182.96L50.9758 157.669H42.6775L32.0081 179.206L22.5242 157.669Z" fill="#20425E"/>
<path fill-rule="evenodd" clip-rule="evenodd" d="M70.2412 165.375C70.2412 165.375 50.9756 166.165 50.9756 184.935C51.9192 195.605 58.2903 202.741 70.2412 202.718C76.5318 202.705 90.0965 198.964 90.0965 184.935C90.0965 171.302 79.4806 165.375 70.2412 165.375ZM80.0704 184.935C80.0704 172.685 74.1728 169.919 70.2412 169.919C66.5058 169.919 62.0598 174.354 61.198 184.935C61.198 192.246 64.9331 198.532 70.2412 198.568C76.5318 198.612 79.4806 193.036 80.0704 184.935Z" fill="#20425E"/>
<path d="M100.514 198.346C93.7447 190.498 96.6977 178.052 102.505 166.56H110.271C107.769 173.923 107.133 178.748 107.085 188.339C107.901 202.406 120.624 199.327 122.217 188.339L122.615 166.56H133.367V201.877H128.788L124.208 194.225C120.027 204.624 106.488 204.821 100.514 198.346Z" fill="#20425E"/>
<path d="M167.179 166.354H162.411L162.808 201.405H173.734V180.453C173.734 175.362 177.707 170.27 181.481 170.27C187.044 170.27 188.323 174.433 188.831 181.628C188.615 192.224 187.568 197.842 183.468 207.084L187.441 209.238C195.336 200.181 199.161 192.006 199.161 181.628C199.161 170.662 194.29 165.646 185.057 165.375C177.385 166.028 174.75 168.468 171.152 174.187L167.179 166.354Z" fill="#20425E"/>
<path d="M232.38 166.354H227.613L228.01 201.405H238.936V180.453C238.936 175.362 242.909 170.27 246.683 170.27C252.245 170.27 253.525 174.433 254.033 181.628C253.816 192.224 252.77 197.842 248.67 207.084L252.643 209.238C260.538 200.181 264.363 192.006 264.363 181.628C264.363 170.662 259.491 165.646 250.259 165.375C242.586 166.028 239.952 168.468 236.353 174.187L232.38 166.354Z" fill="#20425E"/>
<path d="M218.129 166.56C214.639 166.626 207.618 166.717 207.46 166.56V201.532H218.129V166.56Z" fill="#20425E"/>
<path fill-rule="evenodd" clip-rule="evenodd" d="M281.684 188.543C297.198 192.701 307.606 186.563 307.017 176.662C306.539 168.634 299.172 165.382 288.361 165.375C279.524 165.375 270.883 172.9 270.883 183.395C270.883 194.973 277.364 200.921 286.397 202.404C294.841 203.79 302.204 200.548 305.839 193.295L301.911 191.315C296.805 199.038 288.754 200.622 284.041 194.088C282.707 191.736 282.205 190.523 281.684 188.543ZM291.896 170.325C285.415 170.325 281.198 174.586 281.684 184.583C284.041 186.167 287.379 185.856 292.288 185.375C298.769 184.74 299.162 176.857 297.394 173.494C296.207 171.234 293.877 170.325 291.896 170.325Z" fill="#20425E"/>
<path fill-rule="evenodd" clip-rule="evenodd" d="M194.136 264.414C209.904 268.572 220.482 262.434 219.884 252.533C219.398 244.505 211.911 241.253 200.922 241.246C191.94 241.246 183.158 248.771 183.158 259.265C183.158 270.844 189.744 276.792 198.926 278.275C207.509 279.661 214.992 276.419 218.686 269.166L214.694 267.186C209.504 274.909 201.321 276.493 196.531 269.958C195.175 267.607 194.665 266.394 194.136 264.414ZM204.515 246.196C197.928 246.196 193.641 250.457 194.136 260.454C196.531 262.038 199.924 261.727 204.914 261.246C211.5 260.611 211.9 252.728 210.103 249.365C208.896 247.105 206.528 246.196 204.515 246.196Z" fill="#20425E"/>
<path d="M85.9474 250.506L81.2123 252.684C80.6203 248.922 76.8718 245.556 73.1233 245.556C66.4153 245.556 61.4063 249.318 61.6804 257.832C62.0627 269.709 65.2315 273.671 70.1639 273.671C76.8718 273.671 79.042 271.691 81.2123 266.939L85.3555 268.919C83.689 273.441 78.7679 277.235 75.6881 277.631C67.2044 278.722 59.4445 277.631 54.3805 270.701C50.04 264.762 49.6455 255.986 54.3805 248.922C61.6804 238.032 77.6611 237.24 85.9474 250.506Z" fill="#20425E"/>
<path fill-rule="evenodd" clip-rule="evenodd" d="M129.218 242.425H125.094L120.971 249.497C115.277 238.3 101.533 238.693 94.0716 249.497C90.341 254.899 90.5653 261.204 93.4825 269.926C96.2419 278.177 112.135 282.498 118.811 273.855V277.587H129.218V242.425ZM110.368 246.55C116.455 246.55 118.615 249.497 118.615 262.658C118.615 268.944 115.67 273.462 109.779 273.462C106.049 273.462 101.893 267.962 101.925 262.658C101.925 253.819 103.496 246.55 110.368 246.55Z" fill="#20425E"/>
<path fill-rule="evenodd" clip-rule="evenodd" d="M164.522 245.844C157.696 239.105 147.944 239.898 142.288 246.438C135.946 253.772 135.905 265.267 142.288 274.186C146.774 280.455 163.157 280.727 166.082 270.421L170.763 277.754H174.859V228.798H164.522V245.844ZM148.139 260.907C148.139 250.204 150.87 246.438 155.55 246.438C161.792 246.438 163.926 249.808 164.132 260.907C164.132 269.231 162.377 273.592 155.55 273.592C150.284 273.592 147.953 267.646 148.139 260.907Z" fill="#20425E"/>
<path d="M231.587 242.409H227.613V277.666H237.946V261.212C237.946 252.986 238.343 246.522 243.509 246.522C248.278 246.522 249.669 251.223 249.669 261.212V277.666H260.201V261.212C260.005 250.686 261.592 246.522 266.559 246.522C272.322 246.522 273.445 252.79 272.322 263.171C271.435 271.366 270.094 275.667 267.155 283.15L271.13 285.109L271.206 285.017C277.721 277.178 281.744 272.338 282.456 262.192C283.197 251.63 283.102 245.81 274.11 242.017C269.932 240.254 263.486 241.185 258.015 248.285C255.152 242.697 252.65 241.429 246.291 241.429C240.33 241.429 237.971 244.776 235.164 250.048L231.587 242.409Z" fill="#20425E"/>
<path d="M296.709 242.432H286.294C292.29 256.084 296.129 263.686 301.818 277.529C299.656 282.824 297.888 286.157 294.547 291.647L299.067 294C310.661 274.784 314.198 262.824 322.451 242.432H315.18L306.927 265.569L296.709 242.432Z" fill="#20425E"/>
<path d="M12.3902 275.822H0L0.59001 247.963C0.59001 238.48 11.0135 229.984 21.6337 229.984C33.4339 229.984 42.6774 239.27 42.6774 256.262C42.6774 266.931 34.6139 281.947 29.3038 285.108C28.9554 285.157 26.1571 283.33 24.7804 282.342C30.6805 270.487 31.116 261.004 30.6805 247.963C30.41 239.863 28.1238 235.516 21.6337 235.516C16.3236 235.516 12.3902 239.665 12.3902 247.963V259.62H25.3704V264.757H12.3902V275.822Z" fill="#20425E"/>
</svg>
